name Walk9.mot
datacolumns 19
datarows 12
range 3.30000000 3.35500000
endheader

                time	   L_ground_force_vx	   L_ground_force_vy	   L_ground_force_vz	   L_ground_force_px	   L_ground_force_py	   L_ground_force_pz	   R_ground_force_vx	   R_ground_force_vy	   R_ground_force_vz	   R_ground_force_px	   R_ground_force_py	   R_ground_force_pz	   L_ground_torque_x	   L_ground_torque_y	   L_ground_torque_z	   R_ground_torque_x	   R_ground_torque_y	   R_ground_torque_z	
          3.30000000	          0.00000000	          0.00000000	         -0.00000000	         -0.00000000	          0.00000000	         -0.00000000	         31.26179381	        123.65066056	         -1.36882954	          0.19908957	          0.00000000	          0.05560591	          0.00000000	          0.00000000	          0.00000000	          0.00000000	         -5.53349466	          0.00000000	
          3.30500000	          0.00000000	          0.00000000	         -0.00000000	         -0.00000000	          0.00000000	         -0.00000000	         25.37270804	         94.32622509	         -0.47498839	          0.17922645	          0.00000000	          0.04919566	          0.00000000	          0.00000000	          0.00000000	          0.00000000	         -4.57563273	          0.00000000	
          3.31000000	          0.00000000	          0.00000000	         -0.00000000	         -0.00000000	          0.00000000	         -0.00000000	         19.77231141	         68.61481498	          0.15089271	          0.15600823	          0.00000000	          0.04205702	          0.00000000	          0.00000000	          0.00000000	          0.00000000	         -3.63232632	          0.00000000	
          3.31500000	          0.00000000	          0.00000000	         -0.00000000	         -0.00000000	          0.00000000	         -0.00000000	         14.67267531	         46.86314678	          0.54577190	          0.13033545	          0.00000000	          0.03449376	          0.00000000	          0.00000000	          0.00000000	          0.00000000	         -2.74960998	          0.00000000	
          3.32000000	          0.00000000	          0.00000000	         -0.00000000	         -0.00000000	          0.00000000	         -0.00000000	         10.24896872	         29.22779444	          0.75658426	          0.10385278	          0.00000000	          0.02697393	          0.00000000	          0.00000000	          0.00000000	          0.00000000	         -1.96718127	          0.00000000	
          3.32500000	          0.00000000	          0.00000000	         -0.00000000	         -0.00000000	          0.00000000	         -0.00000000	          6.60164957	         15.60725891	          0.83194703	          0.07866186	          0.00000000	          0.02001932	          0.00000000	          0.00000000	          0.00000000	          0.00000000	         -1.30985711	          0.00000000	
          3.33000000	          0.00000000	          0.00000000	         -0.00000000	         -0.00000000	          0.00000000	         -0.00000000	          3.74058379	          5.63832786	          0.81447877	          0.05628622	          0.00000000	          0.01397617	          0.00000000	          0.00000000	          0.00000000	          0.00000000	         -0.78473400	          0.00000000	
          3.33500000	          0.00000000	          0.00000000	         -0.00000000	         -0.00000000	          0.00000000	         -0.00000000	          1.61000278	         -1.20047807	          0.73886128	          0.03748559	          0.00000000	          0.00899547	          0.00000000	          0.00000000	          0.00000000	          0.00000000	         -0.38591975	          0.00000000	
          3.34000000	          0.00000000	         -0.00000000	         -0.00000000	         -0.00000000	          0.00000000	         -0.00000000	          0.11637070	         -5.49112852	          0.63193426	          0.02246445	          0.00000000	          0.00509002	          0.00000000	          0.00000000	          0.00000000	          0.00000000	         -0.09964632	          0.00000000	
          3.34500000	         -0.00000000	         -0.00000000	         -0.00000000	         -0.00000000	          0.00000000	         -0.00000000	         -0.85067014	         -7.80835767	          0.51338567	          0.01105502	          0.00000000	          0.00218296	          0.00000000	         -0.00000000	          0.00000000	          0.00000000	          0.09181611	          0.00000000	
          3.35000000	         -0.00000000	         -0.00000000	         -0.00000000	         -0.00000000	          0.00000000	         -0.00000000	         -1.40353697	         -8.67680516	          0.39676016	          0.00286406	          0.00000000	          0.00014608	          0.00000000	         -0.00000000	          0.00000000	          0.00000000	          0.20733571	          0.00000000	
          3.35500000	         -0.00000000	         -0.00000000	         -0.00000000	          0.00000000	          0.00000000	          0.00000000	         -1.64707695	         -8.54749333	          0.29059155	         -0.00261516	          0.00000000	         -0.00117169	          0.00000000	         -0.00000000	          0.00000000	          0.00000000	          0.26501845	          0.00000000	
